<?xml version="1.0" encoding="utf-8"?>
<!-- Generator: Adobe Illustrator 16.0.0, SVG Export Plug-In . SVG Version: 6.00 Build 0)  -->
<!DOCTYPE svg PUBLIC "-//W3C//DTD SVG 1.1//EN" "http://www.w3.org/Graphics/SVG/1.1/DTD/svg11.dtd">
<svg version="1.1" id="Capa_1" xmlns="http://www.w3.org/2000/svg" xmlns:xlink="http://www.w3.org/1999/xlink" x="0px" y="0px"
	 width="612px" height="612px" viewBox="0 0 612 612" enable-background="new 0 0 612 612" xml:space="preserve">
<g>
	<path fill="#F2F2F2" d="M612,394.37v60.002c0,29.686-24.068,53.727-53.742,53.727h-16.613c1.407-5.791,2.36-11.746,2.36-17.993
		c0-42.185-34.34-76.496-76.521-76.496c-42.185,0-76.522,34.312-76.522,76.496c0,6.247,0.938,12.2,2.36,17.993H218.676
		c1.408-5.791,2.36-11.746,2.36-17.993c0-42.185-34.325-76.496-76.508-76.496c-42.195,0-76.535,34.312-76.535,76.496
		c0,6.247,0.938,12.2,2.346,17.993h-16.6C24.068,508.099,0,484.058,0,454.372V394.37c0-29.701,24.068-53.742,53.742-53.742h62.792
		c31.43-79.673,121.225-136.752,225.53-136.752c104.691,0,194.729,57.481,225.851,137.61C592.973,346.018,612,367.968,612,394.37z
		 M467.47,444.315c-25.313,0-45.815,20.502-45.815,45.788c0,3.205,0.335,6.316,0.953,9.318c0.015,0.146,0.094,0.269,0.119,0.391
		c0.616,2.843,1.461,5.632,2.574,8.261c0.016,0,0.016,0,0.016,0.014c6.999,16.371,23.224,27.851,42.143,27.851
		s35.143-11.49,42.156-27.851c0-0.014,0-0.014,0.015-0.014c1.113-2.629,1.958-5.416,2.574-8.261c0.026-0.135,0.108-0.256,0.12-0.391
		c0.631-3.018,0.953-6.113,0.953-9.318C513.286,464.817,492.786,444.315,467.47,444.315z M144.516,444.315
		c-25.314,0-45.831,20.502-45.831,45.788c0,3.205,0.322,6.316,0.953,9.318c0,0.041,0.014,0.053,0.014,0.094
		c4.345,20.797,22.769,36.431,44.864,36.431c18.919,0,35.143-11.49,42.143-27.851c0-0.014,0-0.014,0-0.014
		c1.14-2.627,1.985-5.416,2.601-8.313c0.027-0.12,0.094-0.229,0.108-0.336c0.63-3.016,0.953-6.112,0.953-9.317
		C190.32,464.817,169.818,444.315,144.516,444.315z M94.354,167.511c-27.407-7.014-34.205-10.418-34.205-20.837v-0.455
		c0-7.697,7.014-13.811,20.382-13.811c10.887,0,21.763,3.862,33.319,10.647c2.709,1.595,5.404,2.507,8.823,2.507
		c9.064,0,16.304-7.026,16.304-16.077c0-6.797-3.862-11.571-7.724-13.811c-9.976-6.369-21.279-10.565-33.721-12.604V91.152
		c0-8.34-6.744-15.098-15.083-15.098c-8.34,0-15.084,6.758-15.084,15.098v11.813c-24.994,4.61-41.875,21.934-41.875,46.445v0.455
		c0,31.496,20.623,40.333,52.548,48.471c26.508,6.812,31.938,11.33,31.938,20.153v0.455c0,9.278-8.621,14.937-22.889,14.937
		c-15.406,0-28.519-5.431-40.547-14.253c-2.267-1.583-5.431-3.152-9.949-3.152c-9.063,0-16.304,7.014-16.304,16.063
		c0,5.43,2.709,10.418,6.571,13.14c12.269,8.782,26.2,14.347,40.506,17.042v12.471c0,8.327,6.744,15.083,15.084,15.083
		c8.339,0,15.083-6.758,15.083-15.083V263.97c28.132-3.499,47.089-20.476,47.089-48.405v-0.469
		C144.636,187.45,126.494,175.891,94.354,167.511z"/>
</g>
</svg>
