<?xml version="1.0" encoding="utf-8"?>
<!-- Generator: Adobe Illustrator 16.0.0, SVG Export Plug-In . SVG Version: 6.00 Build 0)  -->
<!DOCTYPE svg PUBLIC "-//W3C//DTD SVG 1.1//EN" "http://www.w3.org/Graphics/SVG/1.1/DTD/svg11.dtd">
<svg version="1.1" id="Capa_1" xmlns="http://www.w3.org/2000/svg" xmlns:xlink="http://www.w3.org/1999/xlink" x="0px" y="0px"
	 width="612px" height="792px" viewBox="0 0 612 792" enable-background="new 0 0 612 792" xml:space="preserve">
<path fill="#F2F2F2" d="M591.771,258.802c-2.141,0-4.335,0.307-6.527,0.909l-24.8,6.833l-25.756-62.735
	c-7.298-17.773-28.862-32.232-48.076-32.232h-241.03c-19.211,0-40.778,14.459-48.076,32.232l-25.717,62.65l-24.49-6.747
	c-2.192-0.604-4.387-0.909-6.527-0.909c-11.721,0-20.229,8.954-20.229,21.293v14.62c0,0.639,0.051,1.263,0.095,1.89
	c-5.667,4.223-11.07,8.882-16.159,13.971c-27.429,27.429-42.534,63.894-42.534,102.683c0,31.444,9.931,61.365,28.304,86.178
	L6.366,583.325c-8.487,8.485-8.487,22.247,0,30.734c4.243,4.245,9.805,6.366,15.367,6.366c5.562,0,11.124-2.121,15.366-6.366
	l83.888-83.888c24.814,18.375,54.733,28.307,86.177,28.307c38.789,0,75.256-15.105,102.683-42.534
	c8.849-8.849,16.396-18.648,22.583-29.152h180.404v31.125c0,14.4,11.716,26.117,26.116,26.117h34.11
	c14.4,0,26.116-11.717,26.116-26.117V393.278c0-17.849-5.516-45.806-12.294-62.319l-4.157-10.126h3.15
	c14.4,0,26.116-11.716,26.116-26.119v-14.62C612,267.756,603.493,258.802,591.771,258.802z M229.475,211.752
	c4.365-10.631,17.336-19.329,28.831-19.329h215.591c11.491,0,24.466,8.697,28.83,19.329l38.957,94.897
	c4.365,10.631-1.468,19.328-12.959,19.328H323.23c-4.069-5.389-8.521-10.543-13.379-15.4
	c-27.429-27.429-63.894-42.534-102.683-42.534c-0.271,0-0.536,0.017-0.807,0.02L229.475,211.752z M207.164,515.011
	c-27.177,0-52.731-10.585-71.95-29.804c-19.219-19.217-29.801-44.768-29.801-71.947c0-27.18,10.585-52.731,29.801-71.95
	c19.219-19.216,44.77-29.801,71.95-29.801c27.18,0,52.731,10.584,71.95,29.801c19.219,19.219,29.801,44.77,29.801,71.947
	c0,27.181-10.583,52.731-29.801,71.95S234.344,515.011,207.164,515.011z M548.913,426.68c0,5.747-4.7,10.448-10.448,10.448H464.46
	c-5.745,0-10.448-4.7-10.448-10.448v-35.516c0-5.745,4.701-10.448,10.448-10.448h74.005c5.748,0,10.448,4.701,10.448,10.448V426.68z
	"/>
</svg>
