<?xml version="1.0" encoding="utf-8"?>
<!-- Generator: Adobe Illustrator 16.0.0, SVG Export Plug-In . SVG Version: 6.00 Build 0)  -->
<!DOCTYPE svg PUBLIC "-//W3C//DTD SVG 1.1//EN" "http://www.w3.org/Graphics/SVG/1.1/DTD/svg11.dtd">
<svg version="1.1" id="Capa_1" xmlns="http://www.w3.org/2000/svg" xmlns:xlink="http://www.w3.org/1999/xlink" x="0px" y="0px"
	 width="612px" height="792px" viewBox="0 0 612 792" enable-background="new 0 0 612 792" xml:space="preserve">
<g>
	<path fill="#F2F2F2" d="M532.575,437.319c-10.362-76.741-52.67-132.679-104.792-132.679H184.237
		c-52.16,0-94.45,55.914-104.833,132.658c-37.617,19.032-57.117,58.484-57.117,104.2c0,35.189,11.524,66.625,33.924,87.962V702
		h90.266v-44.102h319.046V702h90.266v-72.539c22.379-21.337,33.924-52.772,33.924-87.962
		C589.692,495.804,570.192,456.331,532.575,437.319z M184.217,331.73h243.525c34.311,0,64.341,40.677,75.518,95.716
		c-5.59-1.04-11.525-1.631-17.624-1.938c0-0.123,0.041-0.227,0.041-0.325c0-31.945-25.969-57.935-57.935-57.935
		s-57.935,25.99-57.935,57.935H133.79c-8.916,0-17.278,0.776-25.152,2.243C119.834,372.387,149.886,331.73,184.217,331.73z
		 M467.626,425.203h-79.702c0-22.01,17.891-39.88,39.88-39.88C449.735,385.32,467.626,403.189,467.626,425.203z M120.286,579.338
		c-20.848,0-37.801-16.912-37.801-37.821c0-20.868,16.95-37.822,37.801-37.822c20.889,0,37.842,16.934,37.842,37.822
		C158.125,562.47,141.195,579.338,120.286,579.338z M415.79,572.627H196.148c-4.999,0-9.036-4.058-9.036-9.036
		c0-4.957,4.038-8.994,9.036-8.994h219.639c4.998,0,9.035,4.037,9.035,8.994C424.826,568.569,420.788,572.627,415.79,572.627z
		 M415.79,539.52H196.148c-4.999,0-9.036-4.058-9.036-9.035c0-4.979,4.038-8.995,9.036-8.995h219.639
		c4.998,0,9.035,4.037,9.035,8.995C424.826,535.462,420.788,539.52,415.79,539.52z M491.673,579.338
		c-20.868,0-37.821-16.912-37.821-37.821c0-20.868,16.95-37.822,37.821-37.822c20.848,0,37.822,16.934,37.822,37.822
		C529.475,562.47,512.524,579.338,491.673,579.338z M448.162,201.91c12.954,20.725,35.781,34.619,62.034,34.639
		c28.741,0,53.343-16.708,65.359-40.8l-48.775-0.021c-17.278,0.041-31.271-14.481-31.271-32.475
		c0.021-17.891,14.014-32.413,31.251-32.454h48.755c-11.931-24.092-36.573-40.779-65.359-40.8
		c-26.212-0.021-49.039,13.911-62.014,34.68H139.684c-10.81-12.444-26.54-20.42-44.287-20.42
		c-32.619-0.021-59.056,26.396-59.036,59.035c0,32.557,26.417,58.974,58.995,59.015c17.747,0,33.477-8.058,44.328-20.4H448.162z
		 M79.873,190.221l-15.545-26.906l15.565-26.885l31.029-0.041l15.545,26.926l-15.524,26.906H79.873L79.873,190.221z"/>
</g>
</svg>
