<?xml version="1.0" encoding="utf-8"?>
<!-- Generator: Adobe Illustrator 16.0.0, SVG Export Plug-In . SVG Version: 6.00 Build 0)  -->
<!DOCTYPE svg PUBLIC "-//W3C//DTD SVG 1.1//EN" "http://www.w3.org/Graphics/SVG/1.1/DTD/svg11.dtd">
<svg version="1.1" id="Capa_1" xmlns="http://www.w3.org/2000/svg" xmlns:xlink="http://www.w3.org/1999/xlink" x="0px" y="0px"
	 width="612px" height="612px" viewBox="0 90 612 612" enable-background="new 0 90 612 612" xml:space="preserve">
<g>
	<path fill="#F2F2F2" d="M501.645,430.037c-8.536-63.216-43.388-109.296-86.324-109.296H214.696
		c-42.967,0-77.805,46.06-86.358,109.278c-30.987,15.68-47.051,48.178-47.051,85.838c0,28.986,9.493,54.883,27.945,72.459v59.756
		h74.358v-36.328h262.82v36.328h74.357v-59.754c18.436-17.578,27.945-43.473,27.945-72.461
		C548.696,478.215,532.633,445.699,501.645,430.037z M214.679,343.057h200.608c28.264,0,53.002,33.509,62.209,78.847
		c-4.605-0.855-9.494-1.344-14.519-1.596c0-0.102,0.034-0.188,0.034-0.268c0-26.316-21.393-47.725-47.725-47.725
		c-26.333,0-47.726,21.409-47.726,47.725H173.139c-7.344,0-14.233,0.639-20.719,1.848
		C161.643,376.548,186.399,343.057,214.679,343.057z M448.142,420.057h-65.655c0-18.131,14.738-32.851,32.852-32.851
		C433.404,387.203,448.142,401.924,448.142,420.057z M162.015,547.027c-17.174,0-31.139-13.932-31.139-31.156
		c0-17.189,13.963-31.154,31.139-31.154c17.208,0,31.173,13.949,31.173,31.154C193.186,533.133,179.239,547.027,162.015,547.027z
		 M405.441,541.5H224.508c-4.118,0-7.444-3.344-7.444-7.443c0-4.084,3.327-7.41,7.444-7.41h180.931c4.117,0,7.443,3.326,7.443,7.41
		C412.885,538.156,409.559,541.5,405.441,541.5z M405.441,514.227H224.508c-4.118,0-7.444-3.342-7.444-7.441
		c0-4.102,3.327-7.41,7.444-7.41h180.931c4.117,0,7.443,3.326,7.443,7.41C412.885,510.885,409.559,514.227,405.441,514.227z
		 M467.951,547.027c-17.19,0-31.156-13.932-31.156-31.156c0-17.189,13.963-31.154,31.156-31.154
		c17.174,0,31.156,13.949,31.156,31.154C499.091,533.133,485.128,547.027,467.951,547.027z M432.108,236.116
		c10.671,17.072,29.476,28.518,51.102,28.534c23.676,0,43.941-13.763,53.84-33.609l-40.179-0.017
		c-14.233,0.034-25.76-11.929-25.76-26.752c0.018-14.738,11.544-26.701,25.743-26.734h40.162
		c-9.828-19.846-30.127-33.592-53.84-33.61c-21.593-0.017-40.396,11.46-51.085,28.568H177.995
		c-8.905-10.251-21.863-16.821-36.482-16.821c-26.871-0.017-48.648,21.744-48.632,48.631c0,26.819,21.762,48.581,48.598,48.615
		c14.62,0,27.578-6.638,36.516-16.805L432.108,236.116L432.108,236.116z M128.725,226.487l-12.806-22.164l12.822-22.147
		l25.561-0.034l12.806,22.181l-12.788,22.164H128.725L128.725,226.487z"/>
</g>
</svg>
