<?xml version="1.0" encoding="utf-8"?>
<!-- Generator: Adobe Illustrator 16.0.0, SVG Export Plug-In . SVG Version: 6.00 Build 0)  -->
<!DOCTYPE svg PUBLIC "-//W3C//DTD SVG 1.1//EN" "http://www.w3.org/Graphics/SVG/1.1/DTD/svg11.dtd">
<svg version="1.1" id="Capa_1" xmlns="http://www.w3.org/2000/svg" xmlns:xlink="http://www.w3.org/1999/xlink" x="0px" y="0px"
	 width="74.666px" height="74.666px" viewBox="0 0 74.666 74.666" enable-background="new 0 0 74.666 74.666" xml:space="preserve">
<g>
	<path fill="#F2F2F2" d="M71.859,31.088v-9.86h-5.625L58.325,7.583H26.089l-7.584,13.101L4.035,10.077l-1.384,1.888l12.64,9.263
		H2.172v9.86H0.001v4.672h2.175v3.603h13.526v-1.168c0-2.517,2.054-4.567,4.577-4.567c2.52,0,4.57,2.054,4.57,4.567v1.168h5.695
		v1.867h3.285V64.25h-7.104v2.336h21.214V64.25h-7.104V41.229h3.282v-1.867h4.305c0.559,3.258,3.373,5.74,6.781,5.74
		c3.412,0,6.232-2.482,6.791-5.74h9.857V35.76h2.813v-4.672H71.859z M55.207,42.771c-2.518,0-4.566-2.047-4.566-4.576
		c0-2.517,2.049-4.567,4.566-4.567c2.523,0,4.576,2.054,4.576,4.567C59.783,40.724,57.73,42.771,55.207,42.771z M69.523,37.028H62
		c-0.557-3.254-3.378-5.739-6.79-5.739c-3.408,0-6.226,2.485-6.782,5.739H27.086c-0.556-3.256-3.398-5.739-6.808-5.739
		c-3.414,0-6.26,2.483-6.814,5.739H4.512V23.564h15.025L27.44,9.919h29.542l7.906,13.645h4.639v13.464H69.523z M40.796,12.845
		h13.243v10.63H40.796V12.845z M56.375,14.709l5.078,8.764h-5.078V14.709z M29.121,12.845h9.339v10.63h-15.5L29.121,12.845z
		 M17.531,44.087c-3.814,0-6.914,3.098-6.914,6.907c0,2.065,0.934,3.905,2.385,5.173h-1.899v4.672h12.858v-4.672h-1.899
		c1.446-1.268,2.385-3.105,2.385-5.173C24.438,47.185,21.34,44.087,17.531,44.087z M17.531,55.562c-2.522,0-4.578-2.049-4.578-4.564
		c0-2.521,2.056-4.571,4.578-4.571c2.519,0,4.569,2.05,4.569,4.571C22.102,53.513,20.054,55.562,17.531,55.562z M11.103,61.911
		h12.858v4.672H11.103V61.911z"/>
</g>
</svg>
