<?xml version="1.0" encoding="utf-8"?>
<!-- Generator: Adobe Illustrator 16.0.0, SVG Export Plug-In . SVG Version: 6.00 Build 0)  -->
<!DOCTYPE svg PUBLIC "-//W3C//DTD SVG 1.1//EN" "http://www.w3.org/Graphics/SVG/1.1/DTD/svg11.dtd">
<svg version="1.1" id="Capa_1" xmlns="http://www.w3.org/2000/svg" xmlns:xlink="http://www.w3.org/1999/xlink" x="0px" y="0px"
	 width="74.666px" height="74.666px" viewBox="0 0 74.666 74.666" enable-background="new 0 0 74.666 74.666" xml:space="preserve">
<g>
	<path fill="#F2F2F2" d="M71.858,31.338v-9.86h-5.625L58.324,7.833H26.088l-7.584,13.101L4.034,10.327L2.65,12.215l12.64,9.263
		H2.171v9.86H0v4.672h2.175v3.603h13.526v-1.168c0-2.517,2.054-4.569,4.577-4.569c2.52,0,4.57,2.053,4.57,4.569v1.168h5.695v1.867
		h3.285v23.019h-7.104v2.336h21.214v-2.336h-7.103V41.479h3.282v-1.867h4.305c0.557,3.257,3.373,5.74,6.781,5.74
		c3.412,0,6.234-2.483,6.791-5.74h9.859V36.01h2.812v-4.672H71.858z M55.206,43.021c-2.518,0-4.566-2.047-4.566-4.576
		c0-2.517,2.049-4.569,4.566-4.569c2.523,0,4.576,2.053,4.576,4.569C59.782,40.974,57.729,43.021,55.206,43.021z M69.522,37.278
		h-7.523c-0.557-3.254-3.378-5.739-6.79-5.739c-3.408,0-6.226,2.485-6.782,5.739H27.085c-0.556-3.256-3.398-5.739-6.808-5.739
		c-3.414,0-6.26,2.483-6.814,5.739H4.511V23.814h15.025l7.903-13.645h29.542l7.906,13.645h4.639v13.464H69.522z M40.795,13.095
		h13.243v10.63H40.795V13.095z M56.374,14.959l5.078,8.764h-5.078V14.959z M29.12,13.095h9.339v10.63h-15.5L29.12,13.095z
		 M17.53,44.337c-3.814,0-6.914,3.098-6.914,6.907c0,2.065,0.934,3.905,2.385,5.173h-1.899v4.672H23.96v-4.672h-1.899
		c1.446-1.268,2.385-3.105,2.385-5.173C24.437,47.435,21.339,44.337,17.53,44.337z M17.53,55.812c-2.522,0-4.578-2.049-4.578-4.566
		c0-2.523,2.056-4.571,4.578-4.571c2.519,0,4.569,2.048,4.569,4.571C22.101,53.763,20.053,55.812,17.53,55.812z M11.102,62.161
		H23.96v4.672H11.102V62.161z"/>
</g>
</svg>
