<?xml version="1.0" encoding="utf-8"?>
<!-- Generator: Adobe Illustrator 16.0.0, SVG Export Plug-In . SVG Version: 6.00 Build 0)  -->
<!DOCTYPE svg PUBLIC "-//W3C//DTD SVG 1.1//EN" "http://www.w3.org/Graphics/SVG/1.1/DTD/svg11.dtd">
<svg version="1.1" id="Capa_1" xmlns="http://www.w3.org/2000/svg" xmlns:xlink="http://www.w3.org/1999/xlink" x="0px" y="0px"
	 width="612px" height="792px" viewBox="0 0 612 792" enable-background="new 0 0 612 792" xml:space="preserve">
<g>
	<path fill="#F2F2F2" d="M585.716,463.309l-11.33-0.082c-10.749-0.076-26.402-6.415-34.179-13.839l-44.872-42.854
		c-8.687-8.293-24.396-14.317-37.351-14.317c-1.223,0-2.42,0.056-3.561,0.166L327.13,404.685c-4.162,0.399-9.444,0.611-15.279,0.611
		c-9.785,0-19.751-0.591-26.653-1.581l-71.893-10.312c-1.76-0.253-3.646-0.378-5.612-0.378c-12.625,0-27.438,5.101-36.028,12.41
		L116.811,452.1c-8.488,7.219-24.821,15.44-35.67,17.955l-56.429,13.079C11.087,486.293,0,500.242,0,514.23v72.752
		c0,14.515,11.808,26.323,26.323,26.323H68.37c8.918,30.615,37.213,53.055,70.665,53.055c33.453,0,61.748-22.439,70.665-53.055
		h158.942c8.918,30.615,37.213,53.055,70.665,53.055s61.747-22.439,70.665-53.055h75.707c14.515,0,26.323-11.809,26.323-26.323
		v-97.197C612,475.291,600.21,463.411,585.716,463.309z M139.035,629.319c-20.196,0-36.563-16.372-36.563-36.563
		c0-20.195,16.37-36.565,36.563-36.565c20.194,0,36.563,16.37,36.563,36.565C175.598,612.945,159.229,629.319,139.035,629.319z
		 M316.365,470.088H163.207c-9.619,0-11.013-4.472-3.101-9.941l36.097-24.936c7.913-5.47,22.255-9.941,31.874-9.941h88.288V470.088z
		 M439.308,629.319c-20.191,0-36.563-16.372-36.563-36.563c0-20.195,16.371-36.565,36.563-36.565
		c20.188,0,36.563,16.37,36.563,36.565C475.868,612.945,459.496,629.319,439.308,629.319z M492.626,470.088H358.438V425.27h76.93
		c9.618,0,23.683,4.851,31.258,10.777l29.717,23.264C503.918,465.235,502.245,470.088,492.626,470.088z"/>
	<path fill="#F2F2F2" d="M81.941,372.494h491.951c9.228,0,16.735-7.508,16.735-16.735v-37.381c0-9.227-7.508-16.735-16.735-16.735
		H435.561c-6.321,0-15.301-3.909-19.608-8.534l-21.956-23.591c-5.633-6.047-16.521-10.785-24.785-10.785h-1.088
		c-5.328,0-9.664-4.336-9.664-9.665V142.372c0-9.227-7.508-16.735-16.735-16.735h-22.567c-9.227,0-16.735,7.508-16.735,16.735
		v106.696c0,5.329-4.336,9.665-9.665,9.665h-6.132c-8.263,0-19.15,4.735-24.783,10.788l-21.957,23.585
		c-4.308,4.627-13.287,8.537-19.607,8.537H81.941c-9.227,0-16.735,7.508-16.735,16.735v37.381
		C65.206,364.988,72.714,372.494,81.941,372.494z"/>
	<path fill="#F2F2F2" d="M467.365,275.567c1.54,1.818,3.727,2.862,6.004,2.862c2.276,0,4.464-1.044,6.004-2.862l24.731-29.262
		c2.543-3.011,1.78-5.572,1.338-6.531c-0.448-0.962-1.908-3.195-5.851-3.195h-8.961c-0.857,0-1.581-0.724-1.581-1.581v-49.335
		c0-4.771-3.881-8.651-8.651-8.651h-14.062c-4.771,0-8.651,3.88-8.651,8.651v49.335c0,0.857-0.725,1.581-1.581,1.581h-8.954
		c-3.941,0-5.402,2.233-5.85,3.195c-0.445,0.959-1.208,3.52,1.335,6.531L467.365,275.567z"/>
	<path fill="#F2F2F2" d="M173.158,275.567c1.54,1.818,3.727,2.862,6.004,2.862s4.464-1.044,6.004-2.862l24.732-29.262
		c2.542-3.011,1.78-5.572,1.335-6.531c-0.447-0.962-1.908-3.195-5.85-3.195h-8.961c-0.857,0-1.581-0.724-1.581-1.581v-49.335
		c0-4.771-3.881-8.651-8.651-8.651h-14.062c-4.771,0-8.651,3.88-8.651,8.651v49.335c0,0.857-0.724,1.581-1.581,1.581h-8.953
		c-3.942,0-5.403,2.233-5.851,3.195c-0.445,0.959-1.208,3.52,1.335,6.531L173.158,275.567z"/>
</g>
</svg>
