<?xml version="1.0" encoding="utf-8"?>
<!-- Generator: Adobe Illustrator 16.0.0, SVG Export Plug-In . SVG Version: 6.00 Build 0)  -->
<!DOCTYPE svg PUBLIC "-//W3C//DTD SVG 1.1//EN" "http://www.w3.org/Graphics/SVG/1.1/DTD/svg11.dtd">
<svg version="1.1" id="Capa_1" xmlns="http://www.w3.org/2000/svg" xmlns:xlink="http://www.w3.org/1999/xlink" x="0px" y="0px"
	 width="612px" height="612px" viewBox="0 90 612 612" enable-background="new 0 90 612 612" xml:space="preserve">
<g>
	<path fill="#F2F2F2" d="M585.716,463.31l-11.33-0.082c-10.749-0.075-26.401-6.415-34.179-13.839l-44.872-42.854
		c-8.687-8.293-24.396-14.317-37.351-14.317c-1.224,0-2.42,0.057-3.562,0.166L327.13,404.686c-4.162,0.399-9.444,0.611-15.278,0.611
		c-9.786,0-19.751-0.591-26.653-1.581l-71.893-10.312c-1.76-0.253-3.646-0.378-5.612-0.378c-12.625,0-27.438,5.101-36.028,12.409
		l-54.854,46.665c-8.488,7.22-24.821,15.44-35.67,17.955l-56.429,13.079C11.087,486.294,0,500.243,0,514.231v72.752
		c0,14.515,11.808,26.322,26.323,26.322H68.37c8.918,30.615,37.213,53.056,70.665,53.056c33.453,0,61.748-22.439,70.665-53.056
		h158.942c8.918,30.615,37.213,53.056,70.664,53.056c33.452,0,61.747-22.439,70.665-53.056h75.707
		c14.516,0,26.323-11.809,26.323-26.322v-97.197C612,475.292,600.21,463.412,585.716,463.31z M139.035,629.32
		c-20.196,0-36.563-16.372-36.563-36.563c0-20.195,16.37-36.564,36.563-36.564c20.194,0,36.563,16.369,36.563,36.564
		C175.598,612.946,159.229,629.32,139.035,629.32z M316.365,470.089H163.207c-9.619,0-11.013-4.472-3.101-9.94l36.097-24.937
		c7.913-5.47,22.255-9.941,31.874-9.941h88.288V470.089z M439.308,629.32c-20.19,0-36.563-16.372-36.563-36.563
		c0-20.195,16.371-36.564,36.563-36.564c20.188,0,36.563,16.369,36.563,36.564C475.868,612.946,459.496,629.32,439.308,629.32z
		 M492.626,470.089H358.438v-44.818h76.931c9.618,0,23.683,4.852,31.258,10.777l29.717,23.264
		C503.918,465.236,502.245,470.089,492.626,470.089z"/>
	<path fill="#F2F2F2" d="M81.941,372.495h491.951c9.229,0,16.735-7.508,16.735-16.735v-37.381c0-9.227-7.508-16.735-16.735-16.735
		H435.561c-6.32,0-15.301-3.909-19.607-8.534l-21.956-23.591c-5.633-6.047-16.521-10.785-24.785-10.785h-1.088
		c-5.328,0-9.664-4.336-9.664-9.665V142.373c0-9.227-7.508-16.735-16.735-16.735h-22.566c-9.227,0-16.735,7.508-16.735,16.735
		v106.696c0,5.329-4.336,9.665-9.665,9.665h-6.132c-8.263,0-19.15,4.735-24.783,10.788l-21.957,23.585
		c-4.308,4.627-13.287,8.537-19.607,8.537H81.941c-9.227,0-16.735,7.508-16.735,16.735v37.381
		C65.206,364.989,72.714,372.495,81.941,372.495z"/>
	<path fill="#F2F2F2" d="M467.365,275.568c1.54,1.818,3.727,2.862,6.004,2.862c2.275,0,4.464-1.044,6.004-2.862l24.73-29.262
		c2.543-3.011,1.78-5.572,1.339-6.531c-0.448-0.962-1.908-3.195-5.852-3.195h-8.961c-0.856,0-1.581-0.724-1.581-1.581v-49.335
		c0-4.771-3.881-8.651-8.65-8.651h-14.063c-4.771,0-8.651,3.88-8.651,8.651v49.335c0,0.857-0.725,1.581-1.581,1.581h-8.953
		c-3.941,0-5.402,2.233-5.851,3.195c-0.444,0.959-1.208,3.52,1.335,6.531L467.365,275.568z"/>
	<path fill="#F2F2F2" d="M173.158,275.568c1.54,1.818,3.727,2.862,6.004,2.862c2.277,0,4.464-1.044,6.004-2.862l24.732-29.262
		c2.542-3.011,1.78-5.572,1.335-6.531c-0.447-0.962-1.908-3.195-5.85-3.195h-8.961c-0.857,0-1.581-0.724-1.581-1.581v-49.335
		c0-4.771-3.881-8.651-8.651-8.651h-14.062c-4.771,0-8.651,3.88-8.651,8.651v49.335c0,0.857-0.724,1.581-1.581,1.581h-8.953
		c-3.942,0-5.403,2.233-5.851,3.195c-0.445,0.959-1.208,3.52,1.335,6.531L173.158,275.568z"/>
</g>
</svg>
